<?xml version="1.0" standalone="no"?>
<!DOCTYPE svg PUBLIC "-//W3C//DTD SVG 20010904//EN"
 "http://www.w3.org/TR/2001/REC-SVG-20010904/DTD/svg10.dtd">
<svg version="1.0" xmlns="http://www.w3.org/2000/svg"
 width="330.000000pt" height="330.000000pt" viewBox="0 0 330.000000 330.000000"
 preserveAspectRatio="xMidYMid meet">
<metadata>
Created by potrace 1.11, written by Peter Selinger 2001-2013
</metadata>
<g transform="translate(0.000000,330.000000) scale(0.100000,-0.100000)"
fill="#000000" stroke="none">
<path d="M3168 3293 c-10 -3 -18 -9 -18 -14 0 -12 37 -12 45 0 7 12 -5 19 -27
14z"/>
<path d="M3210 3284 c0 -8 5 -12 10 -9 6 4 8 11 5 16 -9 14 -15 11 -15 -7z"/>
<path d="M3232 3291 c2 -18 -4 -31 -18 -45 -14 -15 -14 -16 1 -16 14 0 14 -4
-4 -26 -12 -15 -21 -34 -21 -43 1 -14 2 -14 11 2 15 25 32 11 18 -16 -12 -22
-12 -22 9 -3 21 19 22 18 31 -5 11 -29 6 -36 -13 -20 -11 9 -15 8 -20 -5 -9
-24 -7 -31 9 -31 8 0 15 4 15 9 0 5 4 7 9 3 5 -3 8 -18 6 -33 -2 -15 -4 -39
-4 -54 -1 -37 -16 -36 -29 2 -9 23 -8 33 4 45 21 21 5 19 -18 -2 -11 -10 -19
-13 -18 -8 5 25 -1 37 -16 31 -8 -3 -12 -2 -9 3 3 5 -3 16 -13 23 -10 7 -21
20 -25 28 -4 12 -6 11 -6 -2 -1 -10 -5 -18 -11 -18 -9 0 -14 17 -13 48 1 6 -5
12 -12 12 -9 0 -11 -8 -7 -22 4 -17 2 -20 -11 -15 -11 4 -14 2 -11 -7 3 -8 13
-13 22 -12 11 1 20 -10 27 -31 9 -33 19 -41 30 -23 8 13 35 1 35 -16 0 -8 -4
-14 -10 -14 -5 0 -10 -4 -10 -10 0 -5 7 -7 15 -4 9 4 15 0 15 -7 0 -11 3 -11
10 1 8 12 10 9 10 -12 0 -15 8 -31 17 -36 14 -9 15 -12 2 -23 -8 -8 -20 -14
-26 -15 -7 -1 -23 -2 -35 -3 l-23 -2 22 -12 c21 -12 22 -14 8 -41 -18 -35 -18
-33 1 -40 12 -5 15 -2 10 9 -3 9 1 18 9 21 7 3 11 12 8 20 -7 18 5 18 23 -1
17 -16 11 -35 -12 -35 -8 0 -14 -4 -14 -8 0 -15 37 -52 51 -52 9 -1 7 -6 -7
-18 -11 -10 -19 -23 -16 -30 9 -28 -7 -35 -18 -7 -11 24 -14 26 -17 12 -3 -10
4 -26 14 -35 21 -19 19 -62 -2 -62 -22 0 -45 -41 -45 -79 0 -33 1 -33 19 -17
14 13 20 14 23 4 3 -7 -2 -19 -9 -26 -11 -12 -11 -17 -1 -30 11 -13 10 -14
-10 -8 -16 6 -22 3 -22 -9 0 -13 -4 -14 -20 -5 -24 13 -24 -7 0 -28 13 -12 13
-13 -2 -8 -12 3 -18 0 -18 -10 0 -9 6 -14 13 -11 6 2 21 0 32 -6 19 -10 19
-10 -3 -18 -22 -9 -31 -29 -11 -29 5 0 7 5 3 12 -4 7 -3 8 4 4 6 -4 8 -14 5
-22 -4 -10 2 -17 15 -21 13 -3 19 -10 15 -20 -5 -12 -7 -12 -14 -1 -7 11 -11
10 -19 -2 -8 -13 -10 -12 -10 3 0 9 -6 17 -14 17 -17 0 -30 -30 -13 -30 20 -1
49 -28 42 -40 -5 -8 -12 -7 -24 4 -17 15 -64 19 -55 4 3 -5 -1 -11 -9 -14 -7
-2 -14 -18 -14 -35 0 -21 4 -28 14 -25 7 3 13 1 13 -5 0 -6 5 -7 10 -4 6 3 10
-3 10 -14 0 -12 -6 -18 -16 -17 -19 3 -53 45 -54 65 0 8 -6 11 -16 7 -9 -3
-20 -6 -25 -6 -5 0 -8 -10 -8 -22 1 -17 2 -19 6 -5 7 27 22 20 18 -10 -1 -15
4 -33 11 -41 12 -11 14 -11 14 2 0 21 16 21 24 0 4 -10 12 -14 22 -10 10 4 14
1 11 -6 -2 -8 -20 -12 -49 -11 -44 2 -45 2 -46 -30 0 -18 -4 -47 -8 -66 -5
-26 -4 -32 7 -29 8 3 13 15 12 27 -2 11 2 21 8 21 7 0 9 10 5 24 -4 15 -1 28
6 32 7 4 10 3 5 -1 -4 -5 0 -16 8 -25 14 -16 14 -18 0 -24 -10 -3 -13 -11 -8
-18 4 -7 8 -17 9 -23 1 -5 5 -18 9 -27 4 -11 3 -18 -4 -18 -6 0 -11 6 -11 14
0 8 -4 17 -9 20 -5 4 -7 -4 -3 -16 5 -21 4 -22 -13 -8 -12 10 -19 11 -22 4 -2
-6 -17 -10 -34 -8 -24 3 -27 1 -17 -10 7 -7 22 -11 33 -9 16 4 17 3 5 -6 -13
-10 -13 -12 0 -21 10 -6 17 -5 23 5 4 8 13 15 20 15 8 0 7 -3 -2 -9 -7 -5 -10
-14 -7 -20 4 -6 1 -11 -6 -11 -10 0 -10 -2 1 -9 8 -5 11 -16 8 -25 -4 -10 -1
-16 7 -16 9 0 12 8 9 23 -4 21 -4 21 11 3 8 -10 13 -23 10 -28 -3 -5 0 -16 7
-24 10 -12 9 -13 -5 -8 -12 5 -17 2 -16 -7 4 -25 -12 -59 -26 -59 -8 0 -14 -4
-14 -10 0 -5 -5 -10 -11 -10 -6 0 -9 8 -7 18 2 10 11 16 21 14 9 -2 17 2 17 8
0 5 -4 10 -9 10 -5 0 -13 9 -16 20 -9 29 -28 25 -21 -5 4 -15 2 -25 -5 -25
-16 0 -41 -29 -34 -40 3 -5 -6 -12 -20 -16 -21 -5 -23 -9 -13 -21 10 -12 9
-18 -7 -29 -18 -13 -18 -14 1 -49 17 -31 17 -37 4 -45 -22 -14 -25 -13 -51 24
-15 23 -26 31 -31 23 -4 -6 -3 -14 2 -17 5 -3 6 -21 1 -40 -4 -19 -7 -51 -6
-71 0 -25 -4 -35 -12 -32 -7 3 -13 1 -13 -5 0 -5 7 -12 15 -16 17 -6 20 -26 4
-26 -6 0 -17 -7 -25 -15 -10 -9 -11 -15 -4 -15 7 0 9 -8 5 -20 -5 -15 -2 -20
12 -21 10 0 13 -3 6 -6 -15 -6 -17 -43 -3 -43 6 0 10 -5 10 -11 0 -8 -4 -8
-14 0 -12 10 -16 8 -22 -11 -4 -13 -7 -27 -6 -32 2 -5 -6 -6 -17 -3 -14 3 -18
1 -14 -9 3 -8 0 -14 -6 -14 -6 0 -11 -5 -11 -11 0 -6 7 -9 15 -6 8 4 17 2 20
-3 4 -6 -5 -10 -18 -10 -20 0 -24 -5 -22 -28 1 -16 5 -34 9 -41 7 -10 4 -11
-14 -1 -26 14 -36 8 -15 -10 17 -14 19 -48 4 -70 -9 -12 -10 -11 -6 7 6 25 -9
34 -39 23 -17 -7 -20 -15 -18 -46 2 -21 8 -41 15 -44 6 -4 2 -10 -12 -13 -13
-4 -20 -9 -16 -13 8 -8 -10 -44 -23 -44 -6 0 -10 12 -10 26 0 50 -31 129 -65
167 -21 23 -40 60 -50 95 -39 139 -52 152 -176 163 -51 5 -94 10 -95 12 -2 2
7 31 20 64 22 53 35 111 52 230 4 23 13 37 33 48 16 8 33 27 39 42 17 42 32
192 32 325 0 95 -3 120 -16 133 -10 9 -24 15 -33 12 -16 -4 -17 16 -10 303 2
86 -18 185 -47 237 -14 25 -21 48 -17 59 4 11 3 15 -4 11 -7 -4 -21 12 -34 40
-13 26 -48 72 -78 103 -31 30 -67 70 -79 87 -27 38 -125 89 -252 133 -133 46
-262 42 -457 -16 -29 -9 -55 -20 -59 -25 -3 -5 -15 -9 -28 -9 -12 0 -40 -13
-62 -30 -21 -16 -44 -30 -50 -30 -6 0 -18 -8 -25 -17 -10 -11 -10 -14 -2 -9
32 19 7 -13 -38 -49 -27 -22 -62 -60 -76 -85 -15 -25 -47 -76 -72 -115 -26
-38 -55 -99 -66 -134 -18 -60 -18 -77 -8 -295 l12 -231 33 -64 c26 -50 33 -76
33 -120 0 -53 8 -81 23 -81 4 0 5 71 3 157 -2 124 1 174 14 235 15 66 16 81 5
109 -8 17 -13 60 -12 96 5 161 63 274 184 356 l53 36 175 10 c241 14 306 10
375 -23 30 -15 55 -34 55 -42 0 -8 7 -26 16 -39 16 -25 16 -46 0 -168 -5 -42
-3 -50 17 -70 34 -31 47 -60 47 -101 0 -19 5 -38 10 -41 6 -3 10 -12 10 -18
-1 -14 -77 -61 -161 -100 -31 -14 -61 -33 -68 -41 -7 -8 -26 -18 -42 -21 -22
-5 -29 -12 -29 -30 0 -12 6 -25 14 -28 19 -7 34 -88 41 -217 3 -58 8 -133 11
-168 6 -62 5 -63 -31 -98 l-37 -34 -28 20 c-29 20 -80 27 -80 11 0 -5 14 -14
30 -20 17 -5 44 -20 61 -31 l29 -22 -20 -25 c-11 -14 -20 -29 -20 -34 0 -4 25
-8 56 -8 31 0 59 -3 62 -6 30 -30 -220 -57 -283 -31 -18 8 -36 19 -39 25 -10
15 -26 4 -26 -17 0 -9 12 -22 28 -28 59 -25 191 -49 260 -48 39 0 72 -3 72 -8
0 -10 -45 -39 -56 -36 -20 5 -84 -24 -77 -35 4 -7 9 -21 11 -32 5 -37 29 -49
90 -48 81 3 142 -16 142 -43 0 -28 -63 -89 -122 -119 -65 -33 -195 -35 -233
-4 -6 4 -22 10 -35 12 -38 6 -74 23 -90 42 -7 9 -27 23 -43 32 -32 16 -36 19
-80 58 -15 14 -30 25 -33 25 -6 0 -4 -3 44 -78 36 -58 185 -212 204 -212 6 0
8 -3 5 -6 -3 -4 9 -25 28 -47 19 -22 35 -49 35 -59 0 -10 15 -25 38 -37 49
-26 75 -58 68 -84 -7 -27 20 -57 51 -57 13 0 53 14 88 30 73 34 90 36 111 15
13 -13 13 -15 1 -15 -8 0 -46 -34 -86 -75 -39 -41 -77 -75 -84 -75 -24 0 -151
-82 -198 -127 l-45 -44 -13 27 c-6 15 -9 29 -7 32 9 9 -25 56 -58 82 -18 13
-45 49 -61 80 -15 30 -38 73 -51 95 -36 61 -62 121 -69 157 -5 33 -24 191 -30
258 -4 46 -24 152 -29 158 -8 7 -91 -55 -129 -97 -20 -22 -52 -71 -71 -109
-19 -37 -41 -74 -50 -81 -8 -7 -26 -32 -40 -55 -14 -23 -43 -55 -66 -70 -22
-14 -56 -48 -75 -75 -40 -55 -58 -65 -165 -86 -41 -8 -118 -24 -170 -35 -52
-12 -124 -23 -160 -26 -108 -9 -194 -75 -207 -161 l-6 -38 28 28 c33 33 46 34
64 6 10 -17 15 -19 21 -8 11 17 23 -26 16 -61 -2 -14 -5 -29 -5 -33 -1 -4 -12
4 -25 18 -15 16 -22 33 -19 45 7 25 -9 26 -29 3 -13 -15 -14 -28 -7 -68 12
-66 25 -123 37 -161 10 -33 8 -40 -21 -63 -16 -13 -18 -13 -16 0 3 18 -11 49
-22 49 -5 0 -9 -7 -9 -15 0 -8 5 -15 12 -15 8 0 9 -3 2 -10 -12 -12 -5 -82 7
-74 5 3 9 -6 9 -20 0 -29 -14 -34 -28 -9 -8 13 -10 11 -10 -10 0 -15 5 -27 10
-27 6 0 5 -7 -2 -15 -11 -13 14 -15 218 -15 l230 0 32 68 c38 78 49 72 21 -11
l-20 -57 1405 0 1404 0 0 1650 0 1649 -34 -1 c-19 -1 -35 -4 -34 -7z m58 -25
c0 -3 -4 -8 -10 -11 -5 -3 -10 -1 -10 4 0 6 5 11 10 11 6 0 10 -2 10 -4z m-15
-44 c-3 -3 -11 0 -18 7 -9 10 -8 11 6 5 10 -3 15 -9 12 -12z m-25 -22 c0 -5
-7 -10 -15 -10 -8 0 -15 5 -15 10 0 6 7 10 15 10 8 0 15 -4 15 -10z m-3 -292
c-3 -8 -6 -5 -6 6 -1 11 2 17 5 13 3 -3 4 -12 1 -19z m-37 -288 c0 -5 -5 -10
-11 -10 -5 0 -7 5 -4 10 3 6 8 10 11 10 2 0 4 -4 4 -10z m54 -16 c4 -10 1 -14
-6 -12 -15 5 -23 28 -10 28 5 0 13 -7 16 -16z m-24 -179 c0 -8 -4 -15 -10 -15
-5 0 -10 7 -10 15 0 8 5 15 10 15 6 0 10 -7 10 -15z m-80 -229 c0 -2 -7 -9
-15 -16 -13 -11 -14 -10 -9 4 5 14 24 23 24 12z m-1300 -88 c10 -13 16 -26 13
-30 -8 -14 -43 12 -43 32 0 26 8 25 30 -2z m1230 -72 c9 -12 8 -15 -9 -13 -21
1 -26 8 -14 20 9 9 9 9 23 -7z m-1192 -78 c9 -9 15 -9 24 0 7 7 40 12 78 12
53 0 69 -4 83 -20 18 -22 23 -35 8 -26 -5 3 -7 -13 -4 -37 3 -34 -2 -52 -27
-95 -17 -29 -41 -57 -53 -63 -54 -25 -121 42 -142 141 -12 57 -11 60 7 60 16
0 17 3 8 20 -12 22 -1 27 18 8z m1181 -17 c12 -8 11 -12 -4 -28 -17 -16 -18
-16 -12 0 4 11 2 17 -8 17 -8 0 -15 5 -15 10 0 12 20 13 39 1z m-26 -204 c3
-8 -3 -13 -14 -13 -19 0 -24 8 -12 19 10 11 20 8 26 -6z m-106 -57 c-1 -11 -5
-20 -10 -20 -5 0 -7 6 -4 14 3 8 1 17 -6 20 -7 2 -5 5 5 5 11 1 16 -6 15 -19z
m-32 -39 c3 -5 1 -12 -5 -16 -5 -3 -10 1 -10 9 0 18 6 21 15 7z m25 -41 c0 -5
-4 -10 -10 -10 -5 0 -10 5 -10 10 0 6 5 10 10 10 6 0 10 -4 10 -10z m-90 -30
c0 -5 -4 -10 -10 -10 -5 0 -10 5 -10 10 0 6 5 10 10 10 6 0 10 -4 10 -10z m86
-27 c-1 -19 -14 -33 -31 -33 -6 0 -6 3 1 8 6 4 13 15 17 25 3 9 8 17 11 17 2
0 3 -8 2 -17z m-58 -21 c6 -18 -15 -14 -22 4 -4 10 -1 14 6 12 6 -2 14 -10 16
-16z m-41 -64 c-3 -8 -6 -5 -6 6 -1 11 2 17 5 13 3 -3 4 -12 1 -19z m19 -36
c-11 -10 -15 4 -8 28 l7 25 3 -23 c2 -13 1 -26 -2 -30z m34 -48 c0 -2 -15 -4
-32 -3 -27 0 -29 2 -13 8 18 8 45 4 45 -5z m-33 -46 c-3 -8 -6 -5 -6 6 -1 11
2 17 5 13 3 -3 4 -12 1 -19z m-100 -174 c-3 -3 -12 -4 -19 -1 -8 3 -5 6 6 6
11 1 17 -2 13 -5z m-1642 -122 c-33 -80 -46 -187 -29 -221 17 -32 17 -41 2
-41 -6 0 -20 -7 -30 -17 -23 -20 -23 -18 -2 112 15 86 62 225 78 225 2 0 -6
-26 -19 -58z m1565 -6 c0 -2 -7 -6 -15 -10 -8 -3 -15 -1 -15 4 0 6 7 10 15 10
8 0 15 -2 15 -4z m-10 -36 c0 -5 -5 -10 -11 -10 -5 0 -7 5 -4 10 3 6 8 10 11
10 2 0 4 -4 4 -10z m6 -76 c-22 -8 -41 -12 -44 -9 -3 2 1 7 9 9 8 2 21 7 29 9
36 12 41 4 6 -9z m-1510 -179 c-9 -9 -16 -13 -16 -8 0 12 22 34 28 28 2 -2 -3
-11 -12 -20z m4 -107 c10 -18 17 -34 15 -37 -8 -7 -55 41 -55 56 0 23 20 14
40 -19z m-1015 -70 c4 -13 8 -28 9 -35 1 -6 9 -20 19 -30 9 -11 17 -33 18 -49
0 -45 23 -99 39 -96 9 2 5 -6 -8 -19 -18 -16 -21 -24 -12 -29 8 -5 9 -13 4
-21 -10 -16 -11 -22 -20 -137 -8 -98 -24 -109 -24 -16 0 97 -20 353 -31 397
-7 27 -15 37 -30 37 -11 0 -22 -7 -25 -15 -7 -16 -24 -21 -24 -6 0 18 31 41
55 41 15 0 25 -8 30 -22z m1002 -255 c-2 -16 -4 -5 -4 22 0 28 2 40 4 28 2
-13 2 -35 0 -50z m645 -136 c-14 -42 -27 -75 -30 -73 -5 6 13 66 35 119 25 59
23 39 -5 -46z m-1348 6 c-19 -32 -38 -70 -41 -86 -7 -32 -23 -46 -23 -20 0 30
33 113 45 113 7 0 18 11 25 25 7 14 17 25 21 25 4 0 -8 -26 -27 -57z m-257
-145 c-3 -8 -6 -5 -6 6 -1 11 2 17 5 13 3 -3 4 -12 1 -19z m190 -10 c-3 -8 -6
-5 -6 6 -1 11 2 17 5 13 3 -3 4 -12 1 -19z"/>
<path d="M3166 3233 c-6 -14 -5 -15 5 -6 7 7 10 15 7 18 -3 3 -9 -2 -12 -12z"/>
<path d="M3170 3190 c0 -5 5 -10 10 -10 6 0 10 5 10 10 0 6 -4 10 -10 10 -5 0
-10 -4 -10 -10z"/>
<path d="M3191 3124 c0 -11 3 -14 6 -6 3 7 2 16 -1 19 -3 4 -6 -2 -5 -13z"/>
<path d="M3090 3039 c0 -5 5 -7 10 -4 6 3 10 8 10 11 0 2 -4 4 -10 4 -5 0 -10
-5 -10 -11z"/>
<path d="M3236 3025 c4 -8 8 -15 10 -15 2 0 4 7 4 15 0 8 -4 15 -10 15 -5 0
-7 -7 -4 -15z"/>
<path d="M3177 2963 c-4 -3 -7 -13 -7 -22 1 -13 3 -13 11 2 11 19 8 33 -4 20z"/>
<path d="M3049 2913 c-5 -14 -8 -34 -6 -42 3 -10 5 -8 6 7 1 23 20 31 23 10 0
-7 2 -17 2 -23 1 -5 5 -15 9 -22 4 -6 4 -19 0 -29 -4 -12 -3 -15 5 -10 7 4 12
2 12 -3 0 -6 8 -11 18 -11 16 1 16 1 0 11 -27 15 -21 27 10 21 15 -3 23 -1 19
4 -9 9 -13 10 -42 13 -9 0 -15 7 -14 14 4 32 -2 57 -13 55 -7 -2 -12 5 -10 15
4 26 -7 20 -19 -10z"/>
<path d="M3130 2880 c0 -5 5 -10 10 -10 6 0 10 5 10 10 0 6 -4 10 -10 10 -5 0
-10 -4 -10 -10z"/>
<path d="M3080 2790 c-8 -26 -7 -41 2 -32 6 6 8 16 5 24 -3 7 -6 11 -7 8z"/>
<path d="M3190 2775 c0 -9 5 -15 11 -13 6 2 11 8 11 13 0 5 -5 11 -11 13 -6 2
-11 -4 -11 -13z"/>
<path d="M3030 2750 c0 -11 2 -20 4 -20 2 0 6 9 9 20 3 11 1 20 -4 20 -5 0 -9
-9 -9 -20z"/>
<path d="M3151 2734 c0 -11 3 -14 6 -6 3 7 2 16 -1 19 -3 4 -6 -2 -5 -13z"/>
<path d="M3150 2685 c-7 -9 -8 -15 -2 -15 5 0 12 7 16 15 3 8 4 15 2 15 -2 0
-9 -7 -16 -15z"/>
<path d="M3180 2659 c0 -5 5 -7 10 -4 6 3 10 8 10 11 0 2 -4 4 -10 4 -5 0 -10
-5 -10 -11z"/>
<path d="M3050 2585 c0 -8 -4 -15 -10 -15 -5 0 -10 5 -10 12 0 6 -2 9 -5 6 -3
-3 1 -18 9 -33 l15 -29 11 28 c13 34 13 46 0 46 -5 0 -10 -7 -10 -15z"/>
<path d="M3081 2584 c0 -11 3 -14 6 -6 3 7 2 16 -1 19 -3 4 -6 -2 -5 -13z"/>
<path d="M3110 2578 c0 -19 2 -20 10 -8 6 10 10 11 10 3 0 -7 5 -13 10 -13 17
0 11 19 -10 30 -17 9 -20 8 -20 -12z"/>
<path d="M3155 2510 c3 -5 8 -10 11 -10 2 0 4 5 4 10 0 6 -5 10 -11 10 -5 0
-7 -4 -4 -10z"/>
<path d="M3047 2482 c21 -13 -2 -35 -28 -28 -21 6 -21 5 -6 -4 9 -6 15 -15 12
-20 -3 -5 3 -8 14 -7 11 0 17 5 14 10 -2 4 1 14 7 22 13 16 6 35 -13 35 -9 0
-9 -2 0 -8z"/>
<path d="M3035 2339 c-4 -6 -5 -12 -2 -15 2 -3 7 2 10 11 7 17 1 20 -8 4z"/>
<path d="M1217 2252 c-47 -17 -67 -34 -67 -59 0 -6 10 -11 23 -11 12 1 40 0
62 -1 l40 -3 -33 -11 c-43 -16 -102 -64 -102 -83 0 -12 10 -7 36 16 35 30 73
50 97 50 6 0 -2 -8 -19 -17 -17 -10 -49 -33 -70 -52 -37 -31 -37 -33 -13 -29
21 4 25 1 22 -12 -5 -20 42 -41 86 -39 19 1 14 4 -19 13 -38 11 -45 16 -42 36
2 20 27 49 42 49 3 0 14 -14 25 -32 13 -20 31 -34 50 -37 l30 -6 -27 -7 c-16
-4 -28 -11 -28 -16 0 -10 54 -31 78 -31 28 0 80 49 87 82 4 18 12 40 18 49 8
13 7 22 -3 34 -11 13 -10 19 9 36 28 26 18 39 -47 67 -68 29 -174 35 -235 14z
m93 -147 c0 -8 -7 -15 -15 -15 -26 0 -18 20 13 29 1 1 2 -6 2 -14z"/>
<path d="M1132 2228 c-6 -6 -12 -21 -12 -32 0 -20 1 -19 16 2 18 26 15 49 -4
30z"/>
<path d="M842 2044 c1 -9 9 -19 16 -22 9 -3 13 2 10 14 -1 9 -9 19 -16 22 -9
3 -13 -2 -10 -14z"/>
<path d="M2885 2040 c3 -5 8 -10 11 -10 2 0 4 5 4 10 0 6 -5 10 -11 10 -5 0
-7 -4 -4 -10z"/>
<path d="M2956 2041 c-3 -4 1 -17 9 -27 13 -17 14 -18 15 -1 0 9 -5 17 -11 17
-5 0 -7 5 -4 10 3 6 4 10 1 10 -3 0 -7 -4 -10 -9z"/>
<path d="M2924 1902 c-20 -14 -24 -41 -6 -51 9 -5 14 -13 10 -17 -8 -8 9 -34
23 -34 4 0 7 9 6 19 0 11 -4 18 -7 16 -4 -2 -7 12 -8 32 -2 41 -4 45 -18 35z"/>
<path d="M2878 1833 c7 -3 16 -2 19 1 4 3 -2 6 -13 5 -11 0 -14 -3 -6 -6z"/>
<path d="M3003 1825 c0 -8 4 -12 9 -9 4 3 8 9 8 15 0 5 -4 9 -8 9 -5 0 -9 -7
-9 -15z"/>
<path d="M2888 1813 c10 -4 10 -8 1 -20 -10 -11 -8 -18 9 -36 l22 -21 0 22 c0
13 4 20 10 17 6 -3 10 1 10 10 0 8 -12 20 -26 25 -26 10 -50 13 -26 3z"/>
<path d="M1355 1664 c-56 -58 -95 -119 -95 -148 0 -15 45 -56 61 -56 5 0 9 8
9 17 0 27 20 83 58 161 19 39 33 75 29 78 -3 4 -31 -20 -62 -52z"/>
<path d="M2860 1709 c0 -5 5 -7 10 -4 6 3 10 8 10 11 0 2 -4 4 -10 4 -5 0 -10
-5 -10 -11z"/>
<path d="M2837 1659 c7 -7 15 -10 18 -7 3 3 -2 9 -12 12 -14 6 -15 5 -6 -5z"/>
<path d="M2850 1620 c0 -5 5 -10 11 -10 5 0 7 5 4 10 -3 6 -8 10 -11 10 -2 0
-4 -4 -4 -10z"/>
<path d="M2740 1579 c0 -5 5 -7 10 -4 6 3 10 8 10 11 0 2 -4 4 -10 4 -5 0 -10
-5 -10 -11z"/>
<path d="M2880 1579 c0 -5 5 -7 10 -4 6 3 10 8 10 11 0 2 -4 4 -10 4 -5 0 -10
-5 -10 -11z"/>
<path d="M2760 1475 c0 -8 2 -15 4 -15 2 0 6 7 10 15 3 8 1 15 -4 15 -6 0 -10
-7 -10 -15z"/>
<path d="M2700 1436 c0 -2 7 -9 15 -16 13 -11 14 -10 9 4 -5 14 -24 23 -24 12z"/>
<path d="M2743 1291 c4 -27 13 -35 20 -19 2 7 -2 19 -9 26 -12 11 -13 9 -11
-7z"/>
<path d="M2590 1240 c0 -5 5 -10 10 -10 6 0 10 5 10 10 0 6 -4 10 -10 10 -5 0
-10 -4 -10 -10z"/>
<path d="M2680 1230 c0 -5 5 -10 10 -10 6 0 10 5 10 10 0 6 -4 10 -10 10 -5 0
-10 -4 -10 -10z"/>
<path d="M2655 1130 c-3 -5 -4 -14 -1 -19 4 -5 0 -11 -6 -14 -9 -3 -7 -7 5
-12 24 -10 33 1 17 21 -12 13 -11 17 1 25 9 5 10 9 2 9 -6 0 -15 -4 -18 -10z"/>
<path d="M2591 1004 c0 -11 3 -14 6 -6 3 7 2 16 -1 19 -3 4 -6 -2 -5 -13z"/>
<path d="M0 341 c0 -6 5 -13 10 -16 5 -3 10 1 10 9 0 9 -4 16 -10 16 -5 0 -10
-4 -10 -9z"/>
<path d="M26 297 c3 -10 9 -15 12 -12 3 3 0 11 -7 18 -10 9 -11 8 -5 -6z"/>
</g>
</svg>
